<?xml version="1.0" encoding="utf-8"?>
<!-- Generator: Adobe Illustrator 16.0.0, SVG Export Plug-In . SVG Version: 6.00 Build 0)  -->
<!DOCTYPE svg PUBLIC "-//W3C//DTD SVG 1.1//EN" "http://www.w3.org/Graphics/SVG/1.1/DTD/svg11.dtd">
<svg version="1.1" id="Calque_1" xmlns="http://www.w3.org/2000/svg" xmlns:xlink="http://www.w3.org/1999/xlink" x="0px" y="0px"
	 width="64.954px" height="81.542px" viewBox="0 0 64.954 81.542" enable-background="new 0 0 64.954 81.542" xml:space="preserve">
<path fill="#FFFFFF" d="M32.499,78.933l-0.416-0.353c0,0-4.462-2.992-8.119-5.253c-4.354-2.688-9.014-5.167-13.071-9.354
	C2.946,55.771-0.176,45.457,5.126,30.919c1.917-5.264-0.279-18.592-1.281-20.513c0,0,13.192-8.322,27.932-8.46h1.39
	c14.753,0.138,27.938,8.46,27.938,8.46c-1,1.921-3.202,15.249-1.278,20.513c5.305,14.538,2.181,24.852-5.767,33.053
	c-4.057,4.188-8.71,6.666-13.074,9.354c-3.653,2.261-8.114,5.253-8.114,5.253L32.499,78.933z"/>
<path fill="#FFFFFF" d="M32.567,81.542l-1.686-1.405c-0.661-0.434-4.75-3.114-8.107-5.153c-0.704-0.428-1.417-0.851-2.134-1.274
	c-3.885-2.303-7.901-4.685-11.547-8.382C-0.352,55.746-2.414,44.272,2.79,30.253c1.728-4.665-0.399-17.362-1.202-18.948l-0.843-1.59
	L2.29,8.76C2.857,8.409,16.365,0.142,31.748,0h1.433c15.413,0.142,28.913,8.409,29.481,8.761l1.542,0.956l-0.842,1.589
	c-0.803,1.586-2.93,14.287-1.198,18.946c5.205,14.02,3.143,25.493-6.304,35.075c-3.658,3.71-7.69,6.098-11.588,8.406
	c-0.704,0.417-1.404,0.831-2.098,1.251c-3.288,1.999-7.28,4.613-8.058,5.124L32.567,81.542z M5.728,11.297
	c1.238,4.574,2.639,15.281,0.783,20.289C1.816,44.237,3.54,54.099,11.938,62.618c3.287,3.334,7.08,5.582,10.748,7.757
	c0.729,0.432,1.454,0.86,2.17,1.297c2.845,1.727,6.192,3.898,7.622,4.832c1.429-0.934,4.773-3.104,7.616-4.832
	c0.706-0.428,1.418-0.85,2.135-1.273c3.681-2.181,7.486-4.435,10.787-7.78c8.399-8.521,10.124-18.382,5.427-31.031
	c-1.858-4.999-0.458-15.712,0.781-20.289C55.555,9.296,44.767,4,33.162,3.894h-1.396C20.159,4.001,9.392,9.294,5.728,11.297"/>
<path fill="#E42123" d="M32.516,79.619l-0.742-0.629c-0.358-0.239-4.609-3.083-8.08-5.227c-0.696-0.431-1.401-0.856-2.11-1.283
	c-3.74-2.256-7.608-4.588-11.06-8.152C1.662,55.182-0.262,44.196,4.645,30.744c1.9-5.216-0.377-18.418-1.254-20.1l-0.218-0.419
	l0.399-0.252c0.133-0.084,13.486-8.4,28.201-8.539h1.395C47.901,1.573,61.247,9.889,61.38,9.973l0.399,0.252l-0.219,0.419
	c-0.878,1.685-3.153,14.893-1.253,20.1c4.909,13.452,2.986,24.437-5.879,33.584c-3.465,3.577-7.346,5.915-11.099,8.178
	c-0.696,0.419-1.388,0.836-2.073,1.258c-3.436,2.124-7.639,4.935-8.064,5.219L32.516,79.619z M4.49,10.617
	c1.143,3.128,2.954,15.438,1.118,20.478C0.783,44.323,2.58,54.656,11.261,63.615c3.359,3.469,7.168,5.766,10.852,7.987
	c0.712,0.429,1.42,0.857,2.12,1.289c3.624,2.239,8.091,5.233,8.136,5.263l0.11,0.09l0.107-0.089c0.044-0.03,4.509-3.024,8.131-5.264
	c0.689-0.424,1.384-0.844,2.083-1.265c3.697-2.228,7.521-4.531,10.893-8.012c8.683-8.96,10.479-19.294,5.651-32.52
	c-1.837-5.032-0.025-17.348,1.117-20.479c-2.236-1.322-14.225-8.035-27.298-8.157h-1.386C18.72,2.582,6.726,9.294,4.49,10.617"/>
<path fill="#FFFFFF" d="M5.217,45.135h54.512c0.098-2.281-0.051-4.639-0.413-7.047H5.639C5.275,40.496,5.125,42.854,5.217,45.135"/>
<path fill="#E42123" d="M60.008,45.425H4.937l-0.01-0.278c-0.091-2.248,0.052-4.637,0.425-7.103l0.038-0.247h54.176l0.037,0.247
	c0.373,2.478,0.514,4.868,0.416,7.104L60.008,45.425z M5.497,44.844h53.953c0.07-2.043-0.059-4.216-0.385-6.466H5.89
	C5.565,40.617,5.433,42.789,5.497,44.844"/>
<path fill="#FFFFFF" d="M11.311,60.386h42.333c1.996-2.12,3.459-4.489,4.453-7.05H6.861C7.847,55.896,9.309,58.266,11.311,60.386"/>
<path fill="#E42123" d="M53.77,60.676H11.185l-0.086-0.091c-1.971-2.087-3.488-4.491-4.51-7.146l-0.151-0.395h52.084l-0.154,0.396
	c-1.032,2.657-2.55,5.062-4.512,7.145L53.77,60.676z M11.436,60.095h42.083c1.771-1.902,3.167-4.076,4.149-6.469H7.289
	C8.263,56.015,9.657,58.189,11.436,60.095"/>
<path fill="#FFFFFF" d="M32.083,74.865l0.385,0.072l0.404-0.072c0,0,4.047-1.751,10.553-6.281H21.538
	C28.035,73.114,32.083,74.865,32.083,74.865"/>
<path fill="#E42123" d="M32.467,75.232l-0.499-0.101c-0.04-0.017-4.151-1.814-10.596-6.31l-0.759-0.528h23.738l-0.761,0.529
	c-6.454,4.494-10.562,6.292-10.604,6.309l-0.062,0.019L32.467,75.232z M32.17,74.586l0.3,0.057l0.316-0.057
	c0.365-0.163,4.029-1.833,9.704-5.711H22.47C28.149,72.761,31.812,74.427,32.17,74.586"/>
<path fill="#E42123" d="M57.389,29.884H7.567c-0.04,0.183-0.089,0.357-0.132,0.513c-0.813,2.594-1.417,5.166-1.796,7.69h53.677
	c-0.383-2.524-0.99-5.096-1.793-7.69C57.47,30.241,57.43,30.067,57.389,29.884"/>
<path fill="#E42123" d="M59.654,38.378H5.301l0.051-0.334c0.376-2.503,0.983-5.106,1.806-7.734c0.04-0.143,0.087-0.311,0.125-0.487
	l0.049-0.229h50.289l0.05,0.226c0.037,0.165,0.077,0.336,0.126,0.481c0.823,2.655,1.43,5.257,1.807,7.743L59.654,38.378z
	 M5.978,37.797h52.999c-0.375-2.356-0.957-4.815-1.73-7.314c-0.034-0.096-0.062-0.202-0.089-0.308H7.796
	c-0.026,0.104-0.054,0.205-0.081,0.298C6.935,32.966,6.353,35.425,5.978,37.797"/>
<path fill="#E42123" d="M6.861,53.335h51.236c0.988-2.562,1.51-5.317,1.632-8.2H5.217C5.347,48.018,5.872,50.772,6.861,53.335"/>
<path fill="#E42123" d="M58.296,53.626H6.662L6.59,53.439c-0.968-2.51-1.528-5.3-1.664-8.292l-0.013-0.304h55.12l-0.014,0.304
	c-0.127,2.988-0.684,5.778-1.65,8.292L58.296,53.626z M7.061,53.045h50.836c0.869-2.321,1.383-4.882,1.526-7.62H5.522
	C5.674,48.166,6.191,50.727,7.061,53.045"/>
<path fill="#E42123" d="M13.323,62.306c3.029,2.523,5.789,4.59,8.215,6.278h21.887c2.419-1.688,5.17-3.755,8.202-6.278
	c0.732-0.611,1.394-1.258,2.017-1.92H11.311C11.939,61.048,12.596,61.694,13.323,62.306"/>
<path fill="#E42123" d="M43.516,68.874H21.446l-0.075-0.052c-2.738-1.905-5.509-4.022-8.234-6.293l-0.001-0.001
	c-0.653-0.549-1.301-1.167-2.036-1.943l-0.466-0.489h43.682l-0.46,0.489c-0.703,0.745-1.371,1.383-2.044,1.944
	c-2.746,2.286-5.512,4.403-8.222,6.293L43.516,68.874z M21.629,68.293h21.703c2.674-1.866,5.401-3.957,8.108-6.21
	c0.503-0.421,1.004-0.884,1.521-1.406H11.996c0.531,0.536,1.022,0.991,1.515,1.407C16.197,64.322,18.93,66.411,21.629,68.293"/>
<path fill="#FFFFFF" d="M13.835,20.657l0.228,4.735c0,0-4.163-0.699-5.549-0.119C8.515,25.272,12.051,20.997,13.835,20.657"/>
<path fill="#E42123" d="M14.371,25.738l-0.355-0.06c-1.135-0.19-4.315-0.586-5.389-0.136l-0.336-0.454
	c0.148-0.178,3.624-4.361,5.491-4.716l0.328-0.063L14.371,25.738z M10.294,24.754c1.307,0,2.792,0.196,3.461,0.295l-0.191-4.004
	c-1.216,0.504-3.139,2.486-4.262,3.757C9.607,24.768,9.945,24.754,10.294,24.754"/>
<path fill="#FFFFFF" d="M51.143,20.657l-0.225,4.735c0,0,4.16-0.699,5.543-0.119C56.461,25.272,52.926,20.997,51.143,20.657"/>
<path fill="#E42123" d="M50.61,25.738l0.258-5.429l0.328,0.063c1.864,0.355,5.343,4.538,5.489,4.716l-0.336,0.453
	c-1.073-0.45-4.249-0.054-5.383,0.137L50.61,25.738z M51.415,21.045l-0.189,4.004c0.848-0.126,3.004-0.407,4.449-0.247
	C54.552,23.531,52.629,21.55,51.415,21.045"/>
<path fill="#E42123" d="M32.021,3.614C16.686,3.997,6.748,11.302,6.748,11.302c1.925,3.46,1.669,13.841,1.669,13.841
	c9.614-6.666,23.604-6.022,23.604-6.022h0.872c0,0,13.991-0.644,23.599,6.022c0,0-0.251-10.381,1.668-13.841
	c0,0-9.932-7.305-25.267-7.688H32.021z"/>
<path fill="#E42123" d="M56.796,25.708l-0.472-0.326c-9.415-6.534-23.28-5.978-23.419-5.971l-0.886,0.001
	c-0.152-0.006-14.017-0.561-23.437,5.97l-0.471,0.326l0.015-0.572c0.003-0.103,0.232-10.341-1.633-13.692L6.369,11.22l0.207-0.152
	c0.1-0.073,10.189-7.364,25.437-7.745h0.88c15.256,0.381,25.338,7.672,25.438,7.745l0.206,0.152l-0.124,0.223
	c-1.858,3.352-1.635,13.59-1.633,13.693L56.796,25.708z M7.124,11.394C8.708,14.617,8.741,22.41,8.718,24.59
	c9.565-6.313,23.176-5.765,23.316-5.759l0.858-0.001c0.125-0.005,13.739-0.553,23.298,5.76c-0.021-2.179,0.015-9.973,1.592-13.196
	c-1.488-1.017-11.021-7.144-24.897-7.49h-0.862C18.151,4.251,8.615,10.376,7.124,11.394"/>
<path fill="#FFFFFF" d="M36.257,38.912l-2.208-8.28H33.77l-2.152,7.931c0.37-0.028,0.74-0.06,1.118-0.06
	C33.86,38.503,35.039,38.648,36.257,38.912"/>
<path fill="#E42123" d="M36.693,39.328l-0.503-0.109c-1.23-0.266-2.393-0.402-3.454-0.402c-0.329,0-0.662,0.026-0.983,0.051
	l-0.555,0.042l2.331-8.592h0.762L36.693,39.328z M32.736,38.189c0.96,0,1.996,0.105,3.086,0.314l-1.914-7.181l-1.871,6.894
	C32.266,38.201,32.499,38.189,32.736,38.189"/>
<path fill="#FFFFFF" d="M33.08,39.918l2.984,12.243l0.474,1.791l1.096,4.157c0.022,0.085,0.038,0.15,0.059,0.233
	c0.431-0.198,0.852-0.424,1.259-0.697c0.721-0.491,1.319-1.083,1.815-1.785l-4.164-15.63c-0.82-0.245-1.688-0.368-2.605-0.368
	C33.681,39.862,33.379,39.887,33.08,39.918"/>
<path fill="#E42123" d="M37.484,58.785l-0.119-0.458c-0.01-0.043-0.021-0.085-0.035-0.133l-1.568-5.953l-3.072-12.599l0.357-0.037
	c0.292-0.029,0.61-0.057,0.949-0.057c0.943,0,1.851,0.128,2.697,0.38l0.168,0.051l0.046,0.17l4.202,15.772l-0.085,0.12
	c-0.525,0.742-1.146,1.353-1.896,1.864c-0.385,0.258-0.81,0.495-1.303,0.723L37.484,58.785z M33.472,40.198l2.897,11.889
	l1.532,5.807c0.321-0.163,0.61-0.33,0.875-0.509c0.646-0.44,1.187-0.961,1.649-1.588l-4.08-15.314
	c-0.74-0.203-1.529-0.306-2.35-0.306C33.816,40.177,33.641,40.185,33.472,40.198"/>
<path fill="#FFFFFF" d="M43.006,62.741c-0.267-0.406-0.59-1.161-0.938-2.254h-0.13c-0.088-0.514-0.273-0.885-0.56-1.12
	c-0.285-0.236-0.622-0.354-1.008-0.354c-0.303,0-1.016,0.184-2.132,0.542c-0.085,0.022-0.159,0.041-0.235,0.065
	c0.042,0.159,0.067,0.282,0.071,0.332c0.062,0.313,0.093,0.618,0.093,0.91c0,0.491-0.109,0.87-0.326,1.126
	c-0.316,0.365-3.144,1.632-3.144,1.632v0.917h9.729V63.62C43.814,63.541,43.343,63.248,43.006,62.741"/>
<path fill="#E42123" d="M44.74,64.851H34.385v-1.434l0.186-0.084c1.316-0.59,2.85-1.351,3.034-1.551
	c0.165-0.195,0.25-0.505,0.25-0.92c0-0.271-0.029-0.558-0.087-0.85l-0.005-0.039c-0.002-0.019-0.019-0.103-0.063-0.273l-0.077-0.293
	l0.29-0.088c0.082-0.024,0.161-0.046,0.25-0.068c1.531-0.494,1.995-0.551,2.209-0.551c0.46,0,0.867,0.143,1.208,0.426
	c0.289,0.236,0.495,0.588,0.614,1.047h0.104l0.069,0.218c0.321,1.005,0.64,1.778,0.9,2.178c0.287,0.431,0.68,0.674,1.198,0.739
	l0.274,0.036V64.851z M35.013,64.223h9.1v-0.341c-0.573-0.137-1.033-0.462-1.369-0.967l-0.002-0.003
	c-0.272-0.419-0.583-1.146-0.902-2.111h-0.166l-0.045-0.261c-0.075-0.441-0.222-0.744-0.447-0.929
	c-0.231-0.191-0.494-0.284-0.81-0.284c-0.181,0-0.674,0.09-1.994,0.514c0.005,0.031,0.009,0.052,0.011,0.067
	c0.062,0.326,0.095,0.646,0.095,0.954c0,0.567-0.135,1.015-0.402,1.329c-0.311,0.359-2.236,1.256-3.067,1.632V64.223z"/>
<path fill="#FFFFFF" d="M27.108,60.97c0-0.417,0.055-0.905,0.159-1.455c0.062-0.378,0.15-0.78,0.26-1.223l0.449-1.668l0.434-1.58
	l0.483-1.792l3.444-13.221c-0.417,0.078-0.814,0.184-1.207,0.322l-4.074,14.993l-0.474,1.768c-0.194,0.707-0.372,1.337-0.545,1.912
	c-0.45,1.482-0.844,2.525-1.176,3.109c-0.462,0.811-1.062,1.309-1.781,1.485v0.917h6.685V63.62c-1.049-0.13-1.7-0.325-1.969-0.585
	C27.339,62.589,27.108,61.904,27.108,60.97"/>
<path fill="#E42123" d="M30.071,64.842h-7.296v-1.461l0.231-0.057c0.637-0.156,1.172-0.607,1.59-1.341
	c0.318-0.56,0.705-1.585,1.148-3.048c0.162-0.537,0.335-1.142,0.542-1.902l0.475-1.767l4.116-15.148l0.152-0.054
	c0.412-0.144,0.822-0.253,1.252-0.333l0.472-0.089l-4.048,15.481l-0.882,3.248c-0.118,0.468-0.199,0.848-0.253,1.192
	c-0.104,0.542-0.156,1.013-0.156,1.405c0,0.84,0.201,1.461,0.596,1.847c0.122,0.119,0.52,0.344,1.794,0.501l0.268,0.033V64.842z
	 M23.385,64.231h6.075v-0.345c-0.977-0.14-1.577-0.342-1.877-0.632c-0.517-0.506-0.78-1.274-0.78-2.285
	c0-0.431,0.055-0.939,0.164-1.511c0.057-0.354,0.142-0.75,0.264-1.241l1.368-5.045l3.317-12.738
	c-0.179,0.045-0.357,0.097-0.535,0.155l-4.506,16.602c-0.209,0.769-0.383,1.377-0.547,1.921c-0.457,1.507-0.861,2.574-1.202,3.174
	c-0.455,0.798-1.04,1.321-1.741,1.562V64.231z"/>
<path fill="#FFFFFF" d="M41.938,53.375c-0.272,0.941-0.664,1.767-1.171,2.485c-0.496,0.702-1.097,1.295-1.816,1.785
	c-0.408,0.274-0.828,0.498-1.258,0.697c-1.13,0.515-2.362,0.786-3.696,0.786c-1.538,0-2.954-0.371-4.241-1.103
	c-0.695-0.4-1.287-0.871-1.78-1.402l-0.449,1.668c-0.11,0.442-0.198,0.845-0.26,1.224c1.734,0.638,3.554,0.972,5.469,0.972
	c1.668,0,3.427-0.298,5.267-0.867c0.078-0.023,0.152-0.043,0.237-0.065c1.115-0.358,1.829-0.541,2.132-0.541
	c0.384,0,0.721,0.117,1.006,0.354c0.288,0.234,0.472,0.605,0.561,1.119h0.13h0.55v-7.112H41.938z"/>
<path fill="#E42123" d="M42.922,60.791h-1.24l-0.043-0.253c-0.077-0.442-0.225-0.749-0.452-0.935
	c-0.232-0.192-0.498-0.285-0.814-0.285c-0.184,0-0.687,0.092-2.039,0.527c-0.098,0.025-0.169,0.044-0.242,0.065
	c-1.883,0.584-3.685,0.88-5.354,0.88c-1.91,0-3.786-0.333-5.574-0.989l-0.237-0.086l0.041-0.249
	c0.058-0.361,0.143-0.759,0.265-1.249l0.594-2.205l0.375,0.403c0.478,0.516,1.053,0.968,1.709,1.347
	c1.24,0.704,2.616,1.062,4.088,1.062c1.264,0,2.465-0.256,3.569-0.76c0.462-0.213,0.858-0.433,1.215-0.672
	c0.687-0.469,1.257-1.028,1.737-1.709c0.487-0.692,0.867-1.497,1.127-2.395l0.063-0.22h1.213V60.791z M42.186,60.182h0.127v-6.501
	h-0.148c-0.273,0.873-0.661,1.665-1.147,2.354c-0.523,0.742-1.144,1.352-1.894,1.862c-0.384,0.258-0.81,0.494-1.301,0.722
	c-1.187,0.541-2.473,0.815-3.825,0.815c-1.58,0-3.057-0.384-4.391-1.144c-0.545-0.313-1.037-0.675-1.472-1.078l-0.312,1.158
	c-0.09,0.358-0.158,0.665-0.21,0.943c1.648,0.575,3.371,0.867,5.124,0.867c1.607,0,3.35-0.287,5.177-0.854
	c0.084-0.024,0.162-0.046,0.251-0.068c1.53-0.494,1.994-0.552,2.208-0.552c0.458,0,0.862,0.144,1.202,0.425
	C41.863,59.369,42.068,59.722,42.186,60.182"/>
<path fill="#FFFFFF" d="M41.938,38.503c-0.089,0.512-0.272,0.883-0.561,1.12c-0.285,0.236-0.622,0.351-1.006,0.351
	c-0.303,0-1.017-0.179-2.132-0.538c-0.677-0.216-1.336-0.383-1.984-0.524c-1.216-0.264-2.395-0.409-3.52-0.409
	c-0.379,0-0.748,0.031-1.118,0.06c-1.947,0.129-3.8,0.578-5.564,1.389c-2.091,0.968-3.753,2.325-4.989,4.076
	c-1.195,1.697-1.796,3.489-1.836,5.379h-0.016c0,0.033,0.009,0.062,0.009,0.087c0,0.029-0.009,0.058-0.009,0.09l0.016-0.002
	c0.04,1.887,0.641,3.678,1.836,5.381c1.229,1.74,2.887,3.099,4.972,4.062c0.172-0.574,0.351-1.204,0.545-1.911l0.474-1.767
	c-0.04-0.069-0.085-0.135-0.119-0.204c-0.77-1.517-1.15-3.208-1.15-5.067v-1.162c0-1.86,0.38-3.549,1.15-5.068
	c0.596-1.188,1.532-2.145,2.819-2.881c0.443-0.25,0.905-0.445,1.374-0.61c0.393-0.138,0.79-0.245,1.207-0.322
	c0.245-0.046,0.488-0.089,0.743-0.113c0.298-0.031,0.6-0.056,0.917-0.056c0.918,0,1.786,0.123,2.606,0.368
	c0.832,0.247,1.614,0.618,2.348,1.116c1.454,0.989,2.45,2.407,2.987,4.267h0.68v-7.11H41.938z"/>
<path fill="#E42123" d="M26.227,59.449l-0.319-0.147c-2.12-0.98-3.834-2.381-5.092-4.163c-1.145-1.632-1.776-3.386-1.879-5.218
	l-0.012,0.002l-0.017-0.339c0-0.033,0.004-0.065,0.009-0.095c-0.005-0.015-0.009-0.049-0.009-0.082v-0.306h0.027
	c0.097-1.849,0.729-3.613,1.88-5.249c1.262-1.786,2.981-3.19,5.112-4.177c1.752-0.807,3.66-1.283,5.67-1.418l0.108-0.008
	c1.378-0.106,2.935,0,4.616,0.364c0.735,0.161,1.395,0.335,2.012,0.532c1.414,0.455,1.885,0.523,2.039,0.523
	c0.317,0,0.585-0.092,0.812-0.281c0.23-0.189,0.377-0.495,0.454-0.936l0.043-0.254h1.242v7.72H41.71l-0.065-0.22
	c-0.513-1.776-1.477-3.155-2.864-4.099c-0.701-0.478-1.463-0.84-2.265-1.078c-0.79-0.235-1.636-0.355-2.519-0.355
	c-0.312,0-0.611,0.026-0.886,0.055c-0.231,0.022-0.454,0.06-0.718,0.109c-0.399,0.074-0.78,0.176-1.163,0.31
	c-0.509,0.179-0.941,0.372-1.324,0.588c-1.243,0.71-2.125,1.612-2.697,2.751c-0.742,1.467-1.117,3.125-1.117,4.933v1.162
	c0,1.809,0.375,3.467,1.116,4.929c0.02,0.041,0.042,0.076,0.064,0.111l0.111,0.188l-0.508,1.889
	c-0.209,0.768-0.383,1.378-0.547,1.922L26.227,59.449z M19.532,49.539l0.003,0.037c0.038,1.829,0.638,3.582,1.78,5.212
	c1.132,1.603,2.655,2.882,4.53,3.808c0.134-0.453,0.277-0.959,0.442-1.562l0.44-1.641c-0.022-0.039-0.045-0.078-0.064-0.118
	c-0.783-1.543-1.181-3.294-1.181-5.199v-1.162c0-1.903,0.398-3.655,1.183-5.207c0.618-1.232,1.607-2.245,2.939-3.007
	c0.417-0.236,0.882-0.442,1.425-0.634c0.412-0.144,0.822-0.254,1.253-0.334c0.277-0.052,0.516-0.092,0.769-0.116
	c0.29-0.03,0.607-0.058,0.946-0.058c0.94,0,1.847,0.128,2.692,0.38c0.862,0.256,1.681,0.645,2.434,1.157
	c1.45,0.987,2.473,2.404,3.042,4.214h0.146v-6.499h-0.126c-0.115,0.462-0.317,0.807-0.612,1.05c-0.336,0.279-0.741,0.42-1.201,0.42
	c-0.343,0-1.07-0.18-2.227-0.552c-0.598-0.191-1.237-0.36-1.955-0.517c-1.229-0.267-2.392-0.401-3.454-0.401
	c-0.329,0-0.662,0.025-0.984,0.049l-0.112,0.009c-1.938,0.13-3.774,0.588-5.458,1.363c-2.031,0.94-3.67,2.277-4.868,3.975
	c-1.142,1.622-1.741,3.375-1.779,5.209L19.532,49.539z"/>
<path fill="#FFFFFF" d="M54.563,12.671c0,0-1.462,4.368-1.717,5.044c-0.261,0.677,0.312,1.351,0.312,1.351l0.622-0.883l1.821-6.139
	L54.563,12.671z M53.001,12.15l-1.399,4.108c0,0-0.735,0.157-1.462,0.054c-0.213-0.032-0.242-0.719-0.676-0.626
	c-1.072,0.233-1.977-0.936-1.977-0.936l1.874-5.356l-0.986,0.365c0,0-2.601,5.825-1.928,6.083c0.456,0.177,0.832,0.676,1.774,0.573
	c0.291-0.034,0.261,0.544,0.463,0.729c0.622,0.571,2.755-0.158,3.168-0.416c0.42-0.262,2.236-5.202,2.236-5.202L53.001,12.15z
	 M51.077,13.086l-0.261-0.726l-0.829,0.726l0.259,0.677L51.077,13.086z M44.735,11.786c0.152,0.729,0.207,2.34,0.207,2.34
	c-0.254,0.312-2.601,0-2.601,0l-0.052,0.886c1.147,0.414,3.17-0.676,3.17-0.676c0.521-0.833,0.105-2.808,0.105-2.808L44.735,11.786z
	 M37.871,7.652c0.067-0.053,0.13-0.103,0.204-0.13C38.075,7.522,37.994,7.569,37.871,7.652 M42.549,11.163
	c-0.418-0.417-1.455-0.832-1.455-1.508s0.105-0.727,0.465-0.781c0.366-0.051,1.772,0.105,1.772,0.105l0.463-0.729
	c0,0-1.604-0.312-2.182,0c-0.571,0.313-1.713,1.454-1.459,2.236c0.26,0.78,1.997,1.042,1.924,1.976
	c-0.052,0.729-1.856,0.582-2.23,0.521c-0.623-0.105-3.12-0.519-2.859-3.589c0,0,0.314-1.226,0.843-1.714
	c-0.437,0.312-1.332,1.081-1.521,2.286c-0.261,1.612,0.309,3.591,2.914,3.953c2.597,0.364,3.478-1.457,3.478-1.457
	S42.964,11.578,42.549,11.163 M33.92,12.931h0.208l0.468-0.571V4.977l-0.885,1.194L33.92,12.931z M36.885,15.062l1.973,0.364
	l0.672-0.883c0,0-1.709-0.26-2.181-0.26L36.885,15.062z M32.462,5.548l-0.679,0.465l0.108,4.733
	c-0.575,1.25-3.487,1.768-3.901,2.029c-0.417,0.261-1.194,0.571-1.194,0.571c0.671,0.211,2.285,0.261,2.909,0.157
	c0.623-0.102,2.6-1.925,2.809-2.601C32.723,10.225,32.462,5.548,32.462,5.548 M32.669,12.671c0.104-0.311,0.363-0.26,0.363-0.26
	l-0.104-0.677c0,0-0.94,0.416-0.78,0.991c0.157,0.57,0.521,0.413,0.521,0.413l-0.105,0.988h0.317l0.201-1.09
	C33.082,13.036,32.563,12.982,32.669,12.671 M30.07,11.318V6.171l-0.727,0.987l0.205,4.16H30.07z M27.366,11.163
	c0.417-0.882,0.05-3.432-0.57-3.432c-0.63,0-1.202,1.299-1.094,1.973c0.097,0.674,1.346,0.106,1.346,0.106l-0.205,1.407
	c-0.677,0.569-2.029,0.205-3.019,0.829c-0.987,0.625-1.085,2.341-1.294,3.276c-0.21,0.936-2.496,1.511-2.496,1.511l-0.165,0.831
	c0.993,0.208,2.968-1.249,3.073-2.134c0.105-0.882,0.834-2.962,1.406-2.805C24.922,12.878,27.034,11.863,27.366,11.163
	 M21.594,14.178c0,0-1.461,0.626-1.772,1.144c-0.31,0.52-0.155,1.041-0.155,1.041l1.562-1.143L21.594,14.178z M22.268,11.528
	c0.364-0.575,0.415-2.238,0.415-2.238l-1.194,0.885l0.262,1.611c-0.366,0.987-2.703,0.885-2.703,0.885s0.047-0.417,0.358-0.676
	c0.315-0.26,1.044-2.756-0.466-2.081c-1.508,0.678-1.092,2.811-1.092,2.811s-0.263,0-1.87,0.153
	c-1.615,0.158-1.927,2.236-1.616,2.86c0.317,0.625,0.935,0.471,1.2,0.207c0.261-0.259,0.312,0.264,0.312,0.264
	c0.047,1.818-2.238,2.548-2.761,2.65c-0.516,0.105-1.409-0.102-2.029-0.883c-0.617-0.78-0.199-2.654-0.199-2.654
	c-1.561,3.278,0.497,4.696,1.45,4.891c1.216,0.245,2.877-1.042,3.227-1.562c0.563-0.838,0.933-2.442,0.676-3.225
	c-0.26-0.781-0.992-0.571-0.992-0.571s-0.206-0.312,0.367-0.677c0.572-0.363,2.601-0.052,3.955-0.154
	C20.916,13.919,21.905,12.099,22.268,11.528 M18.314,12.254c0,0-0.417-0.259,0.05-0.832c0.468-0.572,0.84-0.26,0.782,0
	C19.094,11.683,18.626,12.359,18.314,12.254 M19.771,6.898l-1.82,1.145l-0.104,0.936c0.467-0.05,1.765-0.832,1.765-0.832
	L19.771,6.898z M26.216,6.067l0.055-1.09l-0.988,0.622l0.052,1.039L26.216,6.067z"/>
<path fill="#FFFFFF" d="M12.662,20.317c-0.117,0-0.231-0.011-0.342-0.033c-0.439-0.09-1.305-0.493-1.775-1.434
	c-0.331-0.666-0.552-1.824,0.274-3.559l0.137,0.047c-0.004,0.018-0.404,1.849,0.184,2.592c0.63,0.792,1.516,0.947,1.957,0.858
	c0.716-0.14,2.747-0.913,2.704-2.578c-0.01-0.109-0.055-0.247-0.1-0.263c-0.014-0.006-0.044,0.005-0.088,0.049
	c-0.155,0.154-0.442,0.288-0.732,0.242c-0.172-0.028-0.414-0.131-0.585-0.467c-0.198-0.398-0.152-1.287,0.23-1.978
	c0.227-0.408,0.66-0.911,1.443-0.988c1.169-0.111,1.628-0.142,1.793-0.15c-0.057-0.408-0.222-2.191,1.147-2.808
	c0.543-0.242,0.791-0.075,0.904,0.107c0.328,0.529-0.106,1.887-0.36,2.097c-0.208,0.172-0.289,0.423-0.319,0.549
	c0.415,0.005,2.217-0.016,2.542-0.822l-0.265-1.635l1.348-1.002l-0.004,0.15c-0.002,0.069-0.055,1.69-0.426,2.276
	c-0.032,0.049-0.068,0.107-0.108,0.174c-0.448,0.732-1.381,2.256-2.648,2.354c-0.526,0.04-1.148,0.019-1.749-0.003
	c-0.946-0.033-1.839-0.064-2.173,0.147c-0.381,0.243-0.384,0.446-0.361,0.532c0.195-0.032,0.784-0.065,1.015,0.632
	c0.254,0.769-0.085,2.398-0.683,3.289C15.307,19.158,13.886,20.317,12.662,20.317 M10.716,15.901
	c-0.416,1.109-0.432,2.098-0.041,2.884c0.445,0.892,1.261,1.272,1.673,1.356c1.204,0.243,2.833-1.056,3.154-1.53
	c0.578-0.862,0.908-2.428,0.666-3.162c-0.235-0.704-0.876-0.532-0.903-0.524l-0.051,0.014l-0.029-0.045
	c-0.008-0.011-0.072-0.115-0.038-0.274c0.037-0.178,0.181-0.347,0.426-0.504c0.371-0.235,1.286-0.203,2.256-0.169
	c0.598,0.021,1.215,0.043,1.732,0.003c1.194-0.092,2.101-1.573,2.536-2.286c0.041-0.066,0.077-0.125,0.109-0.175
	c0.286-0.452,0.375-1.63,0.397-2.05l-1.035,0.768l0.258,1.586l-0.007,0.018c-0.38,1.024-2.679,0.937-2.775,0.933l-0.078-0.003
	l0.009-0.078c0.002-0.018,0.054-0.45,0.385-0.725c0.208-0.172,0.616-1.444,0.33-1.907c-0.12-0.194-0.364-0.21-0.722-0.051
	c-1.437,0.647-1.054,2.71-1.05,2.731l0.017,0.086h-0.088c-0.01,0-0.287,0.003-1.864,0.153c-0.72,0.071-1.12,0.536-1.329,0.914
	c-0.356,0.641-0.405,1.485-0.228,1.841c0.114,0.223,0.279,0.357,0.479,0.39c0.239,0.037,0.476-0.074,0.605-0.202
	c0.084-0.083,0.163-0.11,0.241-0.083c0.155,0.056,0.19,0.336,0.195,0.391c0.046,1.77-2.073,2.583-2.82,2.729
	c-0.589,0.12-1.499-0.154-2.1-0.91C10.613,17.498,10.642,16.529,10.716,15.901 M53.164,19.184l-0.062-0.071
	c-0.023-0.029-0.597-0.716-0.323-1.425c0.251-0.666,1.699-4.996,1.716-5.04l0.008-0.025l1.22-0.738l-1.883,6.339L53.164,19.184z
	 M54.624,12.72c-0.12,0.358-1.468,4.377-1.709,5.02c-0.194,0.503,0.109,1.013,0.242,1.202l0.558-0.791l1.763-5.948L54.624,12.72z
	 M20.076,17.757c-0.077,0-0.151-0.007-0.221-0.022l-0.07-0.015l0.187-0.947l0.044-0.011c0.023-0.005,2.246-0.574,2.444-1.456
	c0.039-0.173,0.074-0.376,0.111-0.59c0.163-0.931,0.385-2.206,1.216-2.732c0.513-0.324,1.13-0.389,1.674-0.447
	c0.511-0.055,0.996-0.107,1.315-0.359l0.183-1.252c-0.247,0.095-0.807,0.279-1.116,0.11c-0.12-0.065-0.191-0.173-0.213-0.322
	c-0.077-0.481,0.177-1.264,0.555-1.707c0.194-0.228,0.405-0.349,0.611-0.349c0.137,0,0.264,0.091,0.377,0.271
	c0.408,0.643,0.618,2.506,0.259,3.265c-0.352,0.741-2.495,1.762-3.102,1.601c-0.057-0.015-0.118-0.001-0.19,0.047
	c-0.474,0.32-1.029,1.884-1.126,2.696c-0.06,0.516-0.666,1.12-1.211,1.513C21.304,17.409,20.62,17.757,20.076,17.757 M19.956,17.604
	c0.441,0.053,1.105-0.199,1.762-0.672c0.655-0.47,1.107-1.024,1.152-1.411c0.091-0.763,0.642-2.431,1.189-2.8
	c0.107-0.071,0.21-0.093,0.309-0.067c0.53,0.144,2.617-0.856,2.933-1.522c0.335-0.71,0.131-2.523-0.25-3.125
	c-0.058-0.093-0.15-0.203-0.255-0.203c-0.204,0-0.384,0.161-0.501,0.297c-0.348,0.409-0.591,1.152-0.521,1.591
	c0.015,0.104,0.061,0.174,0.139,0.217c0.276,0.151,0.891-0.069,1.105-0.166l0.122-0.055l-0.229,1.566l-0.021,0.018
	c-0.352,0.296-0.868,0.351-1.414,0.409c-0.554,0.059-1.127,0.12-1.612,0.426c-0.777,0.491-0.984,1.679-1.15,2.634
	c-0.038,0.216-0.073,0.42-0.113,0.597c-0.202,0.905-2.171,1.465-2.505,1.553L19.956,17.604z M49.456,17.433
	c-0.34,0-0.636-0.066-0.822-0.235c-0.096-0.089-0.143-0.242-0.188-0.389c-0.065-0.208-0.108-0.334-0.215-0.322
	c-0.703,0.078-1.113-0.176-1.442-0.379c-0.126-0.078-0.245-0.152-0.367-0.199c-0.054-0.021-0.095-0.063-0.122-0.127
	c-0.329-0.797,1.914-5.839,2.01-6.053l0.014-0.028l1.158-0.43l-1.911,5.464c0.149,0.178,0.959,1.08,1.88,0.88
	c0.317-0.068,0.456,0.21,0.555,0.413c0.044,0.091,0.1,0.205,0.146,0.212c0.607,0.086,1.233-0.016,1.395-0.045l1.397-4.095
	l1.282-0.737l-0.067,0.188c-0.188,0.508-1.837,4.972-2.268,5.238C51.629,16.952,50.379,17.433,49.456,17.433 M48.249,16.341
	c0.204,0,0.273,0.225,0.335,0.425c0.04,0.129,0.081,0.262,0.149,0.325c0.587,0.536,2.674-0.171,3.08-0.426
	c0.283-0.175,1.406-3.003,2.138-4.976l-0.891,0.51l-1.403,4.121l-0.041,0.009c-0.03,0.006-0.753,0.159-1.487,0.055
	c-0.122-0.018-0.187-0.152-0.255-0.292c-0.113-0.23-0.201-0.377-0.396-0.335c-1.105,0.24-2.011-0.913-2.049-0.963l-0.023-0.031
	l0.013-0.037l1.822-5.211l-0.812,0.301c-0.651,1.465-2.248,5.3-1.995,5.91c0.017,0.039,0.033,0.046,0.039,0.048
	c0.136,0.052,0.26,0.129,0.392,0.21c0.327,0.202,0.695,0.431,1.349,0.359C48.225,16.341,48.238,16.341,48.249,16.341 M19.628,16.482
	l-0.03-0.099c-0.007-0.022-0.161-0.558,0.162-1.099c0.32-0.532,1.745-1.147,1.806-1.173l0.151-0.065l-0.426,1.219l-0.019,0.014
	L19.628,16.482z M21.47,14.313c-0.38,0.175-1.347,0.651-1.585,1.046c-0.21,0.351-0.194,0.707-0.169,0.878l1.453-1.062L21.47,14.313z
	 M38.888,15.505l-2.119-0.39l0.538-0.905h0.041c0.473,0,2.121,0.25,2.192,0.261l0.121,0.019L38.888,15.505z M37.001,15.01
	l1.826,0.336l0.57-0.75c-0.387-0.056-1.579-0.229-2.009-0.24L37.001,15.01z M42.898,15.179c-0.226,0-0.439-0.03-0.633-0.099
	l-0.051-0.019l0.059-1.018l0.077,0.011c0.93,0.123,2.293,0.214,2.519,0.042c-0.009-0.23-0.067-1.637-0.205-2.295l-0.014-0.065
	l0.97-0.302l0.016,0.078c0.018,0.083,0.414,2.014-0.113,2.862l-0.012,0.016l-0.016,0.009C45.424,14.437,44.033,15.179,42.898,15.179
	 M42.367,14.96c1.052,0.332,2.847-0.578,3.042-0.68c0.427-0.714,0.169-2.289,0.1-2.659l-0.689,0.215
	c0.143,0.751,0.192,2.223,0.195,2.287l0.001,0.027l-0.017,0.021c-0.252,0.309-2.059,0.104-2.59,0.036L42.367,14.96z M32.941,14.198
	h-0.459l0.104-0.969c-0.056,0.005-0.126-0.002-0.201-0.037c-0.141-0.069-0.245-0.219-0.308-0.449
	c-0.173-0.627,0.78-1.058,0.82-1.076l0.087-0.038l0.135,0.872l-0.103-0.019c-0.018-0.004-0.199-0.028-0.278,0.212v0.001
	c-0.022,0.062-0.006,0.097,0.008,0.118c0.062,0.1,0.274,0.143,0.343,0.151l0.079,0.007L32.941,14.198z M32.644,14.053h0.177
	l0.178-0.957c-0.107-0.022-0.292-0.076-0.374-0.205c-0.045-0.07-0.053-0.155-0.023-0.243c0.073-0.223,0.229-0.298,0.348-0.312
	l-0.076-0.493c-0.219,0.115-0.769,0.451-0.654,0.862c0.051,0.184,0.131,0.307,0.232,0.355c0.097,0.048,0.189,0.012,0.19,0.011
	l0.114-0.049L32.644,14.053z M39.884,14.039c-0.21,0-0.433-0.015-0.671-0.049c-1.083-0.15-1.895-0.584-2.416-1.289
	c-0.716-0.969-0.659-2.137-0.56-2.747c0.188-1.201,1.053-1.978,1.551-2.334l0.091,0.113c-0.506,0.468-0.818,1.667-0.821,1.679
	c-0.168,1.977,0.773,3.158,2.798,3.498c0.391,0.064,1.584,0.135,2.005-0.197c0.09-0.072,0.138-0.156,0.145-0.256
	c0.037-0.475-0.446-0.765-0.957-1.072c-0.413-0.248-0.839-0.504-0.963-0.876c-0.275-0.844,0.921-2.011,1.492-2.323
	c0.593-0.321,2.165-0.021,2.23-0.007l0.105,0.02l-0.544,0.857l-0.045-0.005C43.31,9.05,41.92,8.896,41.568,8.946
	c-0.31,0.046-0.401,0.06-0.401,0.709c0,0.431,0.486,0.765,0.916,1.06c0.198,0.136,0.385,0.265,0.517,0.397
	c0.441,0.44,0.184,1.333,0.173,1.37c-0.015,0.03-0.238,0.488-0.791,0.903C41.561,13.7,40.879,14.039,39.884,14.039 M37.411,8.119
	c-0.431,0.41-0.901,1.029-1.031,1.858c-0.094,0.588-0.151,1.711,0.534,2.638c0.497,0.672,1.277,1.086,2.32,1.231
	c1.312,0.186,2.168-0.209,2.652-0.573c0.528-0.394,0.747-0.839,0.749-0.843c-0.001,0,0.241-0.837-0.138-1.215
	c-0.123-0.123-0.305-0.248-0.498-0.38c-0.459-0.315-0.979-0.672-0.979-1.18c0-0.683,0.105-0.79,0.524-0.853
	c0.341-0.048,1.5,0.073,1.749,0.1l0.38-0.6c-0.363-0.061-1.563-0.24-2.028,0.012c-0.522,0.286-1.671,1.394-1.425,2.149
	c0.108,0.32,0.512,0.563,0.902,0.798c0.525,0.315,1.069,0.643,1.026,1.207c-0.011,0.141-0.078,0.262-0.2,0.359
	c-0.499,0.394-1.795,0.28-2.115,0.227c-2.634-0.442-3.041-2.238-2.919-3.666C36.926,9.341,37.101,8.667,37.411,8.119 M50.215,13.882
	l-0.313-0.818l0.946-0.829l0.316,0.874L50.215,13.882z M50.073,13.107l0.206,0.536l0.713-0.581l-0.208-0.577L50.073,13.107z
	 M28.814,13.629c-0.725,0-1.593-0.074-2.04-0.214l-0.194-0.062l0.189-0.075c0.008-0.003,0.777-0.31,1.184-0.565
	c0.115-0.073,0.388-0.157,0.766-0.274c1.002-0.308,2.676-0.824,3.1-1.708L31.71,5.974l0.818-0.559l0.007,0.129
	c0.01,0.191,0.258,4.697,0.049,5.379c-0.213,0.688-2.222,2.546-2.867,2.651C29.497,13.611,29.173,13.629,28.814,13.629
	 M27.024,13.33c0.756,0.165,2.136,0.189,2.67,0.1c0.599-0.097,2.553-1.909,2.751-2.549c0.183-0.596-0.01-4.443-0.049-5.201
	l-0.54,0.37l0.107,4.711l-0.006,0.016c-0.439,0.952-2.164,1.484-3.196,1.801c-0.353,0.109-0.633,0.195-0.732,0.258
	C27.739,13.018,27.285,13.22,27.024,13.33 M34.163,13.004H33.85l-0.212-6.856l1.031-1.392v7.63L34.163,13.004z M33.991,12.859h0.102
	l0.431-0.525V5.197l-0.738,0.997L33.991,12.859z M18.382,12.337c-0.031,0-0.061-0.005-0.091-0.015l-0.015-0.007
	c-0.007-0.004-0.164-0.104-0.199-0.313c-0.031-0.189,0.047-0.399,0.231-0.626c0.361-0.442,0.645-0.352,0.725-0.314
	c0.139,0.068,0.218,0.226,0.184,0.376c-0.042,0.211-0.328,0.665-0.619,0.833C18.522,12.315,18.45,12.337,18.382,12.337
	 M18.346,12.187c0.048,0.013,0.11-0.002,0.18-0.042c0.246-0.142,0.513-0.554,0.55-0.737c0.018-0.086-0.027-0.176-0.107-0.215
	c-0.145-0.071-0.35,0.033-0.548,0.275c-0.158,0.192-0.225,0.364-0.201,0.51C18.241,12.1,18.322,12.169,18.346,12.187 M30.143,11.391
	H29.48l-0.211-4.255l0.874-1.186V11.391z M29.618,11.245h0.38V6.392L29.417,7.18L29.618,11.245z M17.764,9.061l0.119-1.062
	l1.98-1.245l-0.184,1.437l-0.03,0.018c-0.053,0.032-1.316,0.79-1.794,0.842L17.764,9.061z M18.02,8.085L17.93,8.89
	c0.46-0.111,1.431-0.679,1.615-0.788l0.134-1.061L18.02,8.085z M37.913,7.712l-0.086-0.117l0.045,0.057l-0.044-0.057
	c0.068-0.055,0.138-0.111,0.222-0.142l0.062,0.131C38.112,7.585,38.032,7.632,37.913,7.712 M25.27,6.767l-0.061-1.208L26.35,4.84
	l-0.062,1.267L25.27,6.767z M25.358,5.637l0.044,0.871l0.744-0.482l0.046-0.913L25.358,5.637z"/>
<path fill="#FFFFFF" d="M14.442,20.086l-1.819,0.985l-0.109,0.807c0.477-0.044,1.773-0.717,1.773-0.717L14.442,20.086z"/>
<path fill="#FFFFFF" d="M12.436,21.954l0.124-0.924l1.968-1.066l-0.179,1.242l-0.031,0.015c-0.054,0.028-1.314,0.68-1.797,0.725
	L12.436,21.954z M12.685,21.115l-0.092,0.684c0.466-0.093,1.446-0.587,1.632-0.682l0.132-0.907L12.685,21.115z"/>
<path fill="#E42123" d="M28.25,26.656h-3.485v-0.172h1.139v-4.051H24.81v-0.172c0.761-0.037,1.84-0.066,2.398-0.079v4.302h1.042
	V26.656z"/>
<path fill="#E42123" d="M29.186,26.578c1.311-0.237,1.905-0.982,1.957-1.599c-0.178,0.078-0.384,0.13-0.601,0.13
	c-1.075,0-1.621-0.739-1.621-1.377c0-0.768,0.589-1.549,1.88-1.549c1.334,0,1.755,0.952,1.755,1.684c0,1.449-1.119,2.632-3.37,2.861
	V26.578z M30.251,24.262c0,0.299,0,0.68,0.45,0.68c0.499,0,0.551-0.322,0.551-0.644v-1.241c0-0.568-0.162-0.726-0.494-0.726
	c-0.282,0-0.507,0.08-0.507,0.704V24.262z"/>
<path fill="#E42123" d="M32.883,26.656v-0.372c2.023-1.507,2.329-2.175,2.329-2.935c0-0.407-0.226-0.902-0.971-0.902
	c-0.676,0-0.943,0.408-0.943,0.544c0,0.08,0.029,0.13,0.136,0.13c0.078,0,0.069-0.071,0.433-0.071c0.15,0,0.486,0.106,0.486,0.378
	c0,0.303-0.314,0.423-0.586,0.423c-0.619,0-0.771-0.48-0.771-0.622c0-0.661,0.761-1.047,1.764-1.047
	c0.937,0,1.812,0.452,1.812,1.105c0,0.522-0.359,0.83-1.12,1.369l-1.844,1.298h2.089c0.516,0,0.615-0.058,0.646-0.604h0.229
	l-0.093,1.306H32.883z"/>
<path fill="#E42123" d="M37.224,24.449c-0.027-0.861,0.493-2.266,1.816-2.266c1.321,0,1.839,1.405,1.815,2.272
	c0,0.63-0.385,2.272-1.815,2.272C37.608,26.727,37.224,25.085,37.224,24.449 M39.04,22.331c-0.396,0-0.498,0.23-0.498,0.633v3.004
	c0,0.395,0.175,0.61,0.498,0.61c0.312,0,0.483-0.215,0.483-0.61v-3.004C39.523,22.561,39.427,22.331,39.04,22.331"/>
</svg>
